<?xml version="1.0" encoding="UTF-8"?>
<svg xmlns="http://www.w3.org/2000/svg" viewBox="0 0 1920 698" height="698">
  <defs>
    <linearGradient id="maskB" x1=".525" x2=".494" y1=".12" y2="1.03" gradientUnits="objectBoundingBox">
      <stop offset="0" stop-color="#5777ea" />
      <stop offset="1" stop-color="#282f89" stop-opacity=".725" />
    </linearGradient>
    <linearGradient id="maskC" x1=".241" x2=".494" y1="-.292" y2="1.03" gradientUnits="objectBoundingBox">
      <stop offset="0" stop-color="#3a55da" stop-opacity=".294" />
      <stop offset="1" stop-color="#282f89" stop-opacity=".725" />
    </linearGradient>
    <clipPath id="maskA">
      <path d="M0 0h1920v698H0z" fill="none" transform="translate(0 -.201)" />
    </clipPath>
    <clipPath id="maskD">
      <path d="M0 0h2415v760H0z" fill="none" />
    </clipPath>
  </defs>
  <g clip-path="url(#maskA)" transform="translate(0 .201)">
    <path fill="none" d="M0-15.201h1920v713H0z" />
    <path fill="url(#maskB)" d="M-350.1 39.118a98.837 98.837 0 00-86.448 11.218l-192.075 127.077a98.835 98.835 0 01-87.963 10.687l-355.857-127.461a98.775 98.775 0 00-33.313-5.791h-455.57a99.23 99.23 0 00-66.7 25.849L-1920 345.707v506.15H0v-693.7z" opacity=".237" transform="translate(1920 302.113)" />
    <path fill="url(#maskC)" d="M-492 331.592a98.84 98.84 0 01-89.422 10.892l-496.44-182.324a98.781 98.781 0 00-34.06-6.062h-462.813a98.864 98.864 0 01-42.59-9.654L-1920 0v791.029H0V0z" transform="translate(1920 302.113)" />
    <path d="M0-.201h1920v698H0z" fill="none" />
    <g opacity=".2">
      <g clip-path="url(#maskD)" opacity=".668" transform="translate(-317 53.799)">
        <path d="M3 8V5H0V3h3V0h2v3h3v2H5v3zM53 8V5h-3V3h3V0h2v3h3v2h-3v3zM103 8V5h-3V3h3V0h2v3h3v2h-3v3zM153 8V5h-3V3h3V0h2v3h3v2h-3v3zM203 8V5h-3V3h3V0h2v3h3v2h-3v3zM253 8V5h-3V3h3V0h2v3h3v2h-3v3zM303 8V5h-3V3h3V0h2v3h3v2h-3v3zM353 8V5h-3V3h3V0h2v3h3v2h-3v3zM403 8V5h-3V3h3V0h2v3h3v2h-3v3zM453 8V5h-3V3h3V0h2v3h3v2h-3v3zM503 8V5h-3V3h3V0h2v3h3v2h-3v3zM553 8V5h-3V3h3V0h2v3h3v2h-3v3zM603 8V5h-3V3h3V0h2v3h3v2h-3v3zM653 8V5h-3V3h3V0h2v3h3v2h-3v3zM703 8V5h-3V3h3V0h2v3h3v2h-3v3zM753 8V5h-3V3h3V0h2v3h3v2h-3v3zM803 8V5h-3V3h3V0h2v3h3v2h-3v3zM853 8V5h-3V3h3V0h2v3h3v2h-3v3zM903 8V5h-3V3h3V0h2v3h3v2h-3v3zM953 8V5h-3V3h3V0h2v3h3v2h-3v3zM1003 8V5h-3V3h3V0h2v3h3v2h-3v3zM1053 8V5h-3V3h3V0h2v3h3v2h-3v3zM1103 8V5h-3V3h3V0h2v3h3v2h-3v3zM1153 8V5h-3V3h3V0h2v3h3v2h-3v3zM1203 8V5h-3V3h3V0h2v3h3v2h-3v3zM1253 8V5h-3V3h3V0h2v3h3v2h-3v3zM1303 8V5h-3V3h3V0h2v3h3v2h-3v3zM1353 8V5h-3V3h3V0h2v3h3v2h-3v3zM1403 8V5h-3V3h3V0h2v3h3v2h-3v3zM1453 8V5h-3V3h3V0h2v3h3v2h-3v3zM1503 8V5h-3V3h3V0h2v3h3v2h-3v3zM1553 8V5h-3V3h3V0h2v3h3v2h-3v3zM1603 8V5h-3V3h3V0h2v3h3v2h-3v3zM1653 8V5h-3V3h3V0h2v3h3v2h-3v3zM1703 8V5h-3V3h3V0h2v3h3v2h-3v3zM1753 8V5h-3V3h3V0h2v3h3v2h-3v3zM1803 8V5h-3V3h3V0h2v3h3v2h-3v3zM1853 8V5h-3V3h3V0h2v3h3v2h-3v3zM1903 8V5h-3V3h3V0h2v3h3v2h-3v3zM1953 8V5h-3V3h3V0h2v3h3v2h-3v3zM2003 8V5h-3V3h3V0h2v3h3v2h-3v3zM2053 8V5h-3V3h3V0h2v3h3v2h-3v3zM2103 8V5h-3V3h3V0h2v3h3v2h-3v3zM2153 8V5h-3V3h3V0h2v3h3v2h-3v3zM2203 8V5h-3V3h3V0h2v3h3v2h-3v3zM2253 8V5h-3V3h3V0h2v3h3v2h-3v3zM2303 8V5h-3V3h3V0h2v3h3v2h-3v3zM2353 8V5h-3V3h3V0h2v3h3v2h-3v3zM2403 8V5h-3V3h3V0h2v3h3v2h-3v3zM3 60v-3H0v-2h3v-3h2v3h3v2H5v3zM53 60v-3h-3v-2h3v-3h2v3h3v2h-3v3zM103 60v-3h-3v-2h3v-3h2v3h3v2h-3v3zM153 60v-3h-3v-2h3v-3h2v3h3v2h-3v3zM203 60v-3h-3v-2h3v-3h2v3h3v2h-3v3zM253 60v-3h-3v-2h3v-3h2v3h3v2h-3v3zM303 60v-3h-3v-2h3v-3h2v3h3v2h-3v3zM353 60v-3h-3v-2h3v-3h2v3h3v2h-3v3zM403 60v-3h-3v-2h3v-3h2v3h3v2h-3v3zM453 60v-3h-3v-2h3v-3h2v3h3v2h-3v3zM503 60v-3h-3v-2h3v-3h2v3h3v2h-3v3zM553 60v-3h-3v-2h3v-3h2v3h3v2h-3v3zM603 60v-3h-3v-2h3v-3h2v3h3v2h-3v3zM653 60v-3h-3v-2h3v-3h2v3h3v2h-3v3zM703 60v-3h-3v-2h3v-3h2v3h3v2h-3v3zM753 60v-3h-3v-2h3v-3h2v3h3v2h-3v3zM803 60v-3h-3v-2h3v-3h2v3h3v2h-3v3zM853 60v-3h-3v-2h3v-3h2v3h3v2h-3v3zM903 60v-3h-3v-2h3v-3h2v3h3v2h-3v3zM953 60v-3h-3v-2h3v-3h2v3h3v2h-3v3zM1003 60v-3h-3v-2h3v-3h2v3h3v2h-3v3zM1053 60v-3h-3v-2h3v-3h2v3h3v2h-3v3zM1103 60v-3h-3v-2h3v-3h2v3h3v2h-3v3zM1153 60v-3h-3v-2h3v-3h2v3h3v2h-3v3zM1203 60v-3h-3v-2h3v-3h2v3h3v2h-3v3zM1253 60v-3h-3v-2h3v-3h2v3h3v2h-3v3zM1303 60v-3h-3v-2h3v-3h2v3h3v2h-3v3zM1353 60v-3h-3v-2h3v-3h2v3h3v2h-3v3zM1403 60v-3h-3v-2h3v-3h2v3h3v2h-3v3zM1453 60v-3h-3v-2h3v-3h2v3h3v2h-3v3zM1503 60v-3h-3v-2h3v-3h2v3h3v2h-3v3zM1553 60v-3h-3v-2h3v-3h2v3h3v2h-3v3zM1603 60v-3h-3v-2h3v-3h2v3h3v2h-3v3zM1653 60v-3h-3v-2h3v-3h2v3h3v2h-3v3zM1703 60v-3h-3v-2h3v-3h2v3h3v2h-3v3zM1753 60v-3h-3v-2h3v-3h2v3h3v2h-3v3zM1803 60v-3h-3v-2h3v-3h2v3h3v2h-3v3zM1853 60v-3h-3v-2h3v-3h2v3h3v2h-3v3zM1903 60v-3h-3v-2h3v-3h2v3h3v2h-3v3zM1953 60v-3h-3v-2h3v-3h2v3h3v2h-3v3zM2003 60v-3h-3v-2h3v-3h2v3h3v2h-3v3zM2053 60v-3h-3v-2h3v-3h2v3h3v2h-3v3zM2103 60v-3h-3v-2h3v-3h2v3h3v2h-3v3zM2153 60v-3h-3v-2h3v-3h2v3h3v2h-3v3zM2203 60v-3h-3v-2h3v-3h2v3h3v2h-3v3zM2253 60v-3h-3v-2h3v-3h2v3h3v2h-3v3zM2303 60v-3h-3v-2h3v-3h2v3h3v2h-3v3zM2353 60v-3h-3v-2h3v-3h2v3h3v2h-3v3zM2403 60v-3h-3v-2h3v-3h2v3h3v2h-3v3zM3 112v-3H0v-2h3v-3h2v3h3v2H5v3zM53 112v-3h-3v-2h3v-3h2v3h3v2h-3v3zM103 112v-3h-3v-2h3v-3h2v3h3v2h-3v3zM153 112v-3h-3v-2h3v-3h2v3h3v2h-3v3zM203 112v-3h-3v-2h3v-3h2v3h3v2h-3v3zM253 112v-3h-3v-2h3v-3h2v3h3v2h-3v3zM303 112v-3h-3v-2h3v-3h2v3h3v2h-3v3zM353 112v-3h-3v-2h3v-3h2v3h3v2h-3v3zM403 112v-3h-3v-2h3v-3h2v3h3v2h-3v3zM453 112v-3h-3v-2h3v-3h2v3h3v2h-3v3zM503 112v-3h-3v-2h3v-3h2v3h3v2h-3v3zM553 112v-3h-3v-2h3v-3h2v3h3v2h-3v3zM603 112v-3h-3v-2h3v-3h2v3h3v2h-3v3zM653 112v-3h-3v-2h3v-3h2v3h3v2h-3v3zM703 112v-3h-3v-2h3v-3h2v3h3v2h-3v3zM753 112v-3h-3v-2h3v-3h2v3h3v2h-3v3zM803 112v-3h-3v-2h3v-3h2v3h3v2h-3v3zM853 112v-3h-3v-2h3v-3h2v3h3v2h-3v3zM903 112v-3h-3v-2h3v-3h2v3h3v2h-3v3zM953 112v-3h-3v-2h3v-3h2v3h3v2h-3v3zM1003 112v-3h-3v-2h3v-3h2v3h3v2h-3v3zM1053 112v-3h-3v-2h3v-3h2v3h3v2h-3v3zM1103 112v-3h-3v-2h3v-3h2v3h3v2h-3v3zM1153 112v-3h-3v-2h3v-3h2v3h3v2h-3v3zM1203 112v-3h-3v-2h3v-3h2v3h3v2h-3v3zM1253 112v-3h-3v-2h3v-3h2v3h3v2h-3v3zM1303 112v-3h-3v-2h3v-3h2v3h3v2h-3v3zM1353 112v-3h-3v-2h3v-3h2v3h3v2h-3v3zM1403 112v-3h-3v-2h3v-3h2v3h3v2h-3v3zM1453 112v-3h-3v-2h3v-3h2v3h3v2h-3v3zM1503 112v-3h-3v-2h3v-3h2v3h3v2h-3v3zM1553 112v-3h-3v-2h3v-3h2v3h3v2h-3v3zM1603 112v-3h-3v-2h3v-3h2v3h3v2h-3v3zM1653 112v-3h-3v-2h3v-3h2v3h3v2h-3v3zM1703 112v-3h-3v-2h3v-3h2v3h3v2h-3v3zM1753 112v-3h-3v-2h3v-3h2v3h3v2h-3v3zM1803 112v-3h-3v-2h3v-3h2v3h3v2h-3v3zM1853 112v-3h-3v-2h3v-3h2v3h3v2h-3v3zM1903 112v-3h-3v-2h3v-3h2v3h3v2h-3v3zM1953 112v-3h-3v-2h3v-3h2v3h3v2h-3v3zM2003 112v-3h-3v-2h3v-3h2v3h3v2h-3v3zM2053 112v-3h-3v-2h3v-3h2v3h3v2h-3v3zM2103 112v-3h-3v-2h3v-3h2v3h3v2h-3v3zM2153 112v-3h-3v-2h3v-3h2v3h3v2h-3v3zM2203 112v-3h-3v-2h3v-3h2v3h3v2h-3v3zM2253 112v-3h-3v-2h3v-3h2v3h3v2h-3v3zM2303 112v-3h-3v-2h3v-3h2v3h3v2h-3v3zM2353 112v-3h-3v-2h3v-3h2v3h3v2h-3v3zM2403 112v-3h-3v-2h3v-3h2v3h3v2h-3v3zM3 164v-3H0v-2h3v-3h2v3h3v2H5v3zM53 164v-3h-3v-2h3v-3h2v3h3v2h-3v3zM103 164v-3h-3v-2h3v-3h2v3h3v2h-3v3zM153 164v-3h-3v-2h3v-3h2v3h3v2h-3v3zM203 164v-3h-3v-2h3v-3h2v3h3v2h-3v3zM253 164v-3h-3v-2h3v-3h2v3h3v2h-3v3zM303 164v-3h-3v-2h3v-3h2v3h3v2h-3v3zM353 164v-3h-3v-2h3v-3h2v3h3v2h-3v3zM403 164v-3h-3v-2h3v-3h2v3h3v2h-3v3zM453 164v-3h-3v-2h3v-3h2v3h3v2h-3v3zM503 164v-3h-3v-2h3v-3h2v3h3v2h-3v3zM553 164v-3h-3v-2h3v-3h2v3h3v2h-3v3zM603 164v-3h-3v-2h3v-3h2v3h3v2h-3v3zM653 164v-3h-3v-2h3v-3h2v3h3v2h-3v3zM703 164v-3h-3v-2h3v-3h2v3h3v2h-3v3zM753 164v-3h-3v-2h3v-3h2v3h3v2h-3v3zM803 164v-3h-3v-2h3v-3h2v3h3v2h-3v3zM853 164v-3h-3v-2h3v-3h2v3h3v2h-3v3zM903 164v-3h-3v-2h3v-3h2v3h3v2h-3v3zM953 164v-3h-3v-2h3v-3h2v3h3v2h-3v3zM1003 164v-3h-3v-2h3v-3h2v3h3v2h-3v3zM1053 164v-3h-3v-2h3v-3h2v3h3v2h-3v3zM1103 164v-3h-3v-2h3v-3h2v3h3v2h-3v3zM1153 164v-3h-3v-2h3v-3h2v3h3v2h-3v3zM1203 164v-3h-3v-2h3v-3h2v3h3v2h-3v3zM1253 164v-3h-3v-2h3v-3h2v3h3v2h-3v3zM1303 164v-3h-3v-2h3v-3h2v3h3v2h-3v3zM1353 164v-3h-3v-2h3v-3h2v3h3v2h-3v3zM1403 164v-3h-3v-2h3v-3h2v3h3v2h-3v3zM1453 164v-3h-3v-2h3v-3h2v3h3v2h-3v3zM1503 164v-3h-3v-2h3v-3h2v3h3v2h-3v3zM1553 164v-3h-3v-2h3v-3h2v3h3v2h-3v3zM1603 164v-3h-3v-2h3v-3h2v3h3v2h-3v3zM1653 164v-3h-3v-2h3v-3h2v3h3v2h-3v3zM1703 164v-3h-3v-2h3v-3h2v3h3v2h-3v3zM1753 164v-3h-3v-2h3v-3h2v3h3v2h-3v3zM1803 164v-3h-3v-2h3v-3h2v3h3v2h-3v3zM1853 164v-3h-3v-2h3v-3h2v3h3v2h-3v3zM1903 164v-3h-3v-2h3v-3h2v3h3v2h-3v3zM1953 164v-3h-3v-2h3v-3h2v3h3v2h-3v3zM2003 164v-3h-3v-2h3v-3h2v3h3v2h-3v3zM2053 164v-3h-3v-2h3v-3h2v3h3v2h-3v3zM2103 164v-3h-3v-2h3v-3h2v3h3v2h-3v3zM2153 164v-3h-3v-2h3v-3h2v3h3v2h-3v3zM2203 164v-3h-3v-2h3v-3h2v3h3v2h-3v3zM2253 164v-3h-3v-2h3v-3h2v3h3v2h-3v3zM2303 164v-3h-3v-2h3v-3h2v3h3v2h-3v3zM2353 164v-3h-3v-2h3v-3h2v3h3v2h-3v3zM2403 164v-3h-3v-2h3v-3h2v3h3v2h-3v3zM3 216v-3H0v-2h3v-3h2v3h3v2H5v3zM53 216v-3h-3v-2h3v-3h2v3h3v2h-3v3zM103 216v-3h-3v-2h3v-3h2v3h3v2h-3v3zM153 216v-3h-3v-2h3v-3h2v3h3v2h-3v3zM203 216v-3h-3v-2h3v-3h2v3h3v2h-3v3zM253 216v-3h-3v-2h3v-3h2v3h3v2h-3v3zM303 216v-3h-3v-2h3v-3h2v3h3v2h-3v3zM353 216v-3h-3v-2h3v-3h2v3h3v2h-3v3zM403 216v-3h-3v-2h3v-3h2v3h3v2h-3v3zM453 216v-3h-3v-2h3v-3h2v3h3v2h-3v3zM503 216v-3h-3v-2h3v-3h2v3h3v2h-3v3zM553 216v-3h-3v-2h3v-3h2v3h3v2h-3v3zM603 216v-3h-3v-2h3v-3h2v3h3v2h-3v3zM653 216v-3h-3v-2h3v-3h2v3h3v2h-3v3zM703 216v-3h-3v-2h3v-3h2v3h3v2h-3v3zM753 216v-3h-3v-2h3v-3h2v3h3v2h-3v3zM803 216v-3h-3v-2h3v-3h2v3h3v2h-3v3zM853 216v-3h-3v-2h3v-3h2v3h3v2h-3v3zM903 216v-3h-3v-2h3v-3h2v3h3v2h-3v3zM953 216v-3h-3v-2h3v-3h2v3h3v2h-3v3zM1003 216v-3h-3v-2h3v-3h2v3h3v2h-3v3zM1053 216v-3h-3v-2h3v-3h2v3h3v2h-3v3zM1103 216v-3h-3v-2h3v-3h2v3h3v2h-3v3zM1153 216v-3h-3v-2h3v-3h2v3h3v2h-3v3zM1203 216v-3h-3v-2h3v-3h2v3h3v2h-3v3zM1253 216v-3h-3v-2h3v-3h2v3h3v2h-3v3zM1303 216v-3h-3v-2h3v-3h2v3h3v2h-3v3zM1353 216v-3h-3v-2h3v-3h2v3h3v2h-3v3zM1403 216v-3h-3v-2h3v-3h2v3h3v2h-3v3zM1453 216v-3h-3v-2h3v-3h2v3h3v2h-3v3zM1503 216v-3h-3v-2h3v-3h2v3h3v2h-3v3zM1553 216v-3h-3v-2h3v-3h2v3h3v2h-3v3zM1603 216v-3h-3v-2h3v-3h2v3h3v2h-3v3zM1653 216v-3h-3v-2h3v-3h2v3h3v2h-3v3zM1703 216v-3h-3v-2h3v-3h2v3h3v2h-3v3zM1753 216v-3h-3v-2h3v-3h2v3h3v2h-3v3zM1803 216v-3h-3v-2h3v-3h2v3h3v2h-3v3zM1853 216v-3h-3v-2h3v-3h2v3h3v2h-3v3zM1903 216v-3h-3v-2h3v-3h2v3h3v2h-3v3zM1953 216v-3h-3v-2h3v-3h2v3h3v2h-3v3zM2003 216v-3h-3v-2h3v-3h2v3h3v2h-3v3zM2053 216v-3h-3v-2h3v-3h2v3h3v2h-3v3zM2103 216v-3h-3v-2h3v-3h2v3h3v2h-3v3zM2153 216v-3h-3v-2h3v-3h2v3h3v2h-3v3zM2203 216v-3h-3v-2h3v-3h2v3h3v2h-3v3zM2253 216v-3h-3v-2h3v-3h2v3h3v2h-3v3zM2303 216v-3h-3v-2h3v-3h2v3h3v2h-3v3zM2353 216v-3h-3v-2h3v-3h2v3h3v2h-3v3zM2403 216v-3h-3v-2h3v-3h2v3h3v2h-3v3zM3 268v-3H0v-2h3v-3h2v3h3v2H5v3zM53 268v-3h-3v-2h3v-3h2v3h3v2h-3v3zM103 268v-3h-3v-2h3v-3h2v3h3v2h-3v3zM153 268v-3h-3v-2h3v-3h2v3h3v2h-3v3zM203 268v-3h-3v-2h3v-3h2v3h3v2h-3v3zM253 268v-3h-3v-2h3v-3h2v3h3v2h-3v3zM303 268v-3h-3v-2h3v-3h2v3h3v2h-3v3zM353 268v-3h-3v-2h3v-3h2v3h3v2h-3v3zM403 268v-3h-3v-2h3v-3h2v3h3v2h-3v3zM453 268v-3h-3v-2h3v-3h2v3h3v2h-3v3zM503 268v-3h-3v-2h3v-3h2v3h3v2h-3v3zM553 268v-3h-3v-2h3v-3h2v3h3v2h-3v3zM603 268v-3h-3v-2h3v-3h2v3h3v2h-3v3zM653 268v-3h-3v-2h3v-3h2v3h3v2h-3v3zM703 268v-3h-3v-2h3v-3h2v3h3v2h-3v3zM753 268v-3h-3v-2h3v-3h2v3h3v2h-3v3zM803 268v-3h-3v-2h3v-3h2v3h3v2h-3v3zM853 268v-3h-3v-2h3v-3h2v3h3v2h-3v3zM903 268v-3h-3v-2h3v-3h2v3h3v2h-3v3zM953 268v-3h-3v-2h3v-3h2v3h3v2h-3v3zM1003 268v-3h-3v-2h3v-3h2v3h3v2h-3v3zM1053 268v-3h-3v-2h3v-3h2v3h3v2h-3v3zM1103 268v-3h-3v-2h3v-3h2v3h3v2h-3v3zM1153 268v-3h-3v-2h3v-3h2v3h3v2h-3v3zM1203 268v-3h-3v-2h3v-3h2v3h3v2h-3v3zM1253 268v-3h-3v-2h3v-3h2v3h3v2h-3v3zM1303 268v-3h-3v-2h3v-3h2v3h3v2h-3v3zM1353 268v-3h-3v-2h3v-3h2v3h3v2h-3v3zM1403 268v-3h-3v-2h3v-3h2v3h3v2h-3v3zM1453 268v-3h-3v-2h3v-3h2v3h3v2h-3v3zM1503 268v-3h-3v-2h3v-3h2v3h3v2h-3v3zM1553 268v-3h-3v-2h3v-3h2v3h3v2h-3v3zM1603 268v-3h-3v-2h3v-3h2v3h3v2h-3v3zM1653 268v-3h-3v-2h3v-3h2v3h3v2h-3v3zM1703 268v-3h-3v-2h3v-3h2v3h3v2h-3v3zM1753 268v-3h-3v-2h3v-3h2v3h3v2h-3v3zM1803 268v-3h-3v-2h3v-3h2v3h3v2h-3v3zM1853 268v-3h-3v-2h3v-3h2v3h3v2h-3v3zM1903 268v-3h-3v-2h3v-3h2v3h3v2h-3v3zM1953 268v-3h-3v-2h3v-3h2v3h3v2h-3v3zM2003 268v-3h-3v-2h3v-3h2v3h3v2h-3v3zM2053 268v-3h-3v-2h3v-3h2v3h3v2h-3v3zM2103 268v-3h-3v-2h3v-3h2v3h3v2h-3v3zM2153 268v-3h-3v-2h3v-3h2v3h3v2h-3v3zM2203 268v-3h-3v-2h3v-3h2v3h3v2h-3v3zM2253 268v-3h-3v-2h3v-3h2v3h3v2h-3v3zM2303 268v-3h-3v-2h3v-3h2v3h3v2h-3v3zM2353 268v-3h-3v-2h3v-3h2v3h3v2h-3v3zM2403 268v-3h-3v-2h3v-3h2v3h3v2h-3v3zM3 320v-3H0v-2h3v-3h2v3h3v2H5v3zM53 320v-3h-3v-2h3v-3h2v3h3v2h-3v3zM103 320v-3h-3v-2h3v-3h2v3h3v2h-3v3zM153 320v-3h-3v-2h3v-3h2v3h3v2h-3v3zM203 320v-3h-3v-2h3v-3h2v3h3v2h-3v3zM253 320v-3h-3v-2h3v-3h2v3h3v2h-3v3zM303 320v-3h-3v-2h3v-3h2v3h3v2h-3v3zM353 320v-3h-3v-2h3v-3h2v3h3v2h-3v3zM403 320v-3h-3v-2h3v-3h2v3h3v2h-3v3zM453 320v-3h-3v-2h3v-3h2v3h3v2h-3v3zM503 320v-3h-3v-2h3v-3h2v3h3v2h-3v3zM553 320v-3h-3v-2h3v-3h2v3h3v2h-3v3zM603 320v-3h-3v-2h3v-3h2v3h3v2h-3v3zM653 320v-3h-3v-2h3v-3h2v3h3v2h-3v3zM703 320v-3h-3v-2h3v-3h2v3h3v2h-3v3zM753 320v-3h-3v-2h3v-3h2v3h3v2h-3v3zM803 320v-3h-3v-2h3v-3h2v3h3v2h-3v3zM853 320v-3h-3v-2h3v-3h2v3h3v2h-3v3zM903 320v-3h-3v-2h3v-3h2v3h3v2h-3v3zM953 320v-3h-3v-2h3v-3h2v3h3v2h-3v3zM1003 320v-3h-3v-2h3v-3h2v3h3v2h-3v3zM1053 320v-3h-3v-2h3v-3h2v3h3v2h-3v3zM1103 320v-3h-3v-2h3v-3h2v3h3v2h-3v3zM1153 320v-3h-3v-2h3v-3h2v3h3v2h-3v3zM1203 320v-3h-3v-2h3v-3h2v3h3v2h-3v3zM1253 320v-3h-3v-2h3v-3h2v3h3v2h-3v3zM1303 320v-3h-3v-2h3v-3h2v3h3v2h-3v3zM1353 320v-3h-3v-2h3v-3h2v3h3v2h-3v3zM1403 320v-3h-3v-2h3v-3h2v3h3v2h-3v3zM1453 320v-3h-3v-2h3v-3h2v3h3v2h-3v3zM1503 320v-3h-3v-2h3v-3h2v3h3v2h-3v3zM1553 320v-3h-3v-2h3v-3h2v3h3v2h-3v3zM1603 320v-3h-3v-2h3v-3h2v3h3v2h-3v3zM1653 320v-3h-3v-2h3v-3h2v3h3v2h-3v3zM1703 320v-3h-3v-2h3v-3h2v3h3v2h-3v3zM1753 320v-3h-3v-2h3v-3h2v3h3v2h-3v3zM1803 320v-3h-3v-2h3v-3h2v3h3v2h-3v3zM1853 320v-3h-3v-2h3v-3h2v3h3v2h-3v3zM1903 320v-3h-3v-2h3v-3h2v3h3v2h-3v3zM1953 320v-3h-3v-2h3v-3h2v3h3v2h-3v3zM2003 320v-3h-3v-2h3v-3h2v3h3v2h-3v3zM2053 320v-3h-3v-2h3v-3h2v3h3v2h-3v3zM2103 320v-3h-3v-2h3v-3h2v3h3v2h-3v3zM2153 320v-3h-3v-2h3v-3h2v3h3v2h-3v3zM2203 320v-3h-3v-2h3v-3h2v3h3v2h-3v3zM2253 320v-3h-3v-2h3v-3h2v3h3v2h-3v3zM2303 320v-3h-3v-2h3v-3h2v3h3v2h-3v3zM2353 320v-3h-3v-2h3v-3h2v3h3v2h-3v3zM2403 320v-3h-3v-2h3v-3h2v3h3v2h-3v3zM3 372v-3H0v-2h3v-3h2v3h3v2H5v3zM53 372v-3h-3v-2h3v-3h2v3h3v2h-3v3zM103 372v-3h-3v-2h3v-3h2v3h3v2h-3v3zM153 372v-3h-3v-2h3v-3h2v3h3v2h-3v3zM203 372v-3h-3v-2h3v-3h2v3h3v2h-3v3zM253 372v-3h-3v-2h3v-3h2v3h3v2h-3v3zM303 372v-3h-3v-2h3v-3h2v3h3v2h-3v3zM353 372v-3h-3v-2h3v-3h2v3h3v2h-3v3zM403 372v-3h-3v-2h3v-3h2v3h3v2h-3v3zM453 372v-3h-3v-2h3v-3h2v3h3v2h-3v3zM503 372v-3h-3v-2h3v-3h2v3h3v2h-3v3zM553 372v-3h-3v-2h3v-3h2v3h3v2h-3v3zM603 372v-3h-3v-2h3v-3h2v3h3v2h-3v3zM653 372v-3h-3v-2h3v-3h2v3h3v2h-3v3zM703 372v-3h-3v-2h3v-3h2v3h3v2h-3v3zM753 372v-3h-3v-2h3v-3h2v3h3v2h-3v3zM803 372v-3h-3v-2h3v-3h2v3h3v2h-3v3zM853 372v-3h-3v-2h3v-3h2v3h3v2h-3v3zM903 372v-3h-3v-2h3v-3h2v3h3v2h-3v3zM953 372v-3h-3v-2h3v-3h2v3h3v2h-3v3zM1003 372v-3h-3v-2h3v-3h2v3h3v2h-3v3zM1053 372v-3h-3v-2h3v-3h2v3h3v2h-3v3zM1103 372v-3h-3v-2h3v-3h2v3h3v2h-3v3zM1153 372v-3h-3v-2h3v-3h2v3h3v2h-3v3zM1203 372v-3h-3v-2h3v-3h2v3h3v2h-3v3zM1253 372v-3h-3v-2h3v-3h2v3h3v2h-3v3zM1303 372v-3h-3v-2h3v-3h2v3h3v2h-3v3zM1353 372v-3h-3v-2h3v-3h2v3h3v2h-3v3zM1403 372v-3h-3v-2h3v-3h2v3h3v2h-3v3zM1453 372v-3h-3v-2h3v-3h2v3h3v2h-3v3zM1503 372v-3h-3v-2h3v-3h2v3h3v2h-3v3zM1553 372v-3h-3v-2h3v-3h2v3h3v2h-3v3zM1603 372v-3h-3v-2h3v-3h2v3h3v2h-3v3zM1653 372v-3h-3v-2h3v-3h2v3h3v2h-3v3zM1703 372v-3h-3v-2h3v-3h2v3h3v2h-3v3zM1753 372v-3h-3v-2h3v-3h2v3h3v2h-3v3zM1803 372v-3h-3v-2h3v-3h2v3h3v2h-3v3zM1853 372v-3h-3v-2h3v-3h2v3h3v2h-3v3zM1903 372v-3h-3v-2h3v-3h2v3h3v2h-3v3zM1953 372v-3h-3v-2h3v-3h2v3h3v2h-3v3zM2003 372v-3h-3v-2h3v-3h2v3h3v2h-3v3zM2053 372v-3h-3v-2h3v-3h2v3h3v2h-3v3zM2103 372v-3h-3v-2h3v-3h2v3h3v2h-3v3zM2153 372v-3h-3v-2h3v-3h2v3h3v2h-3v3zM2203 372v-3h-3v-2h3v-3h2v3h3v2h-3v3zM2253 372v-3h-3v-2h3v-3h2v3h3v2h-3v3zM2303 372v-3h-3v-2h3v-3h2v3h3v2h-3v3zM2353 372v-3h-3v-2h3v-3h2v3h3v2h-3v3zM2403 372v-3h-3v-2h3v-3h2v3h3v2h-3v3zM3 424v-3H0v-2h3v-3h2v3h3v2H5v3zM53 424v-3h-3v-2h3v-3h2v3h3v2h-3v3zM103 424v-3h-3v-2h3v-3h2v3h3v2h-3v3zM153 424v-3h-3v-2h3v-3h2v3h3v2h-3v3zM203 424v-3h-3v-2h3v-3h2v3h3v2h-3v3zM253 424v-3h-3v-2h3v-3h2v3h3v2h-3v3zM303 424v-3h-3v-2h3v-3h2v3h3v2h-3v3zM353 424v-3h-3v-2h3v-3h2v3h3v2h-3v3zM403 424v-3h-3v-2h3v-3h2v3h3v2h-3v3zM453 424v-3h-3v-2h3v-3h2v3h3v2h-3v3zM503 424v-3h-3v-2h3v-3h2v3h3v2h-3v3zM553 424v-3h-3v-2h3v-3h2v3h3v2h-3v3zM603 424v-3h-3v-2h3v-3h2v3h3v2h-3v3zM653 424v-3h-3v-2h3v-3h2v3h3v2h-3v3zM703 424v-3h-3v-2h3v-3h2v3h3v2h-3v3zM753 424v-3h-3v-2h3v-3h2v3h3v2h-3v3zM803 424v-3h-3v-2h3v-3h2v3h3v2h-3v3zM853 424v-3h-3v-2h3v-3h2v3h3v2h-3v3zM903 424v-3h-3v-2h3v-3h2v3h3v2h-3v3zM953 424v-3h-3v-2h3v-3h2v3h3v2h-3v3zM1003 424v-3h-3v-2h3v-3h2v3h3v2h-3v3zM1053 424v-3h-3v-2h3v-3h2v3h3v2h-3v3zM1103 424v-3h-3v-2h3v-3h2v3h3v2h-3v3zM1153 424v-3h-3v-2h3v-3h2v3h3v2h-3v3zM1203 424v-3h-3v-2h3v-3h2v3h3v2h-3v3zM1253 424v-3h-3v-2h3v-3h2v3h3v2h-3v3zM1303 424v-3h-3v-2h3v-3h2v3h3v2h-3v3zM1353 424v-3h-3v-2h3v-3h2v3h3v2h-3v3zM1403 424v-3h-3v-2h3v-3h2v3h3v2h-3v3zM1453 424v-3h-3v-2h3v-3h2v3h3v2h-3v3zM1503 424v-3h-3v-2h3v-3h2v3h3v2h-3v3zM1553 424v-3h-3v-2h3v-3h2v3h3v2h-3v3zM1603 424v-3h-3v-2h3v-3h2v3h3v2h-3v3zM1653 424v-3h-3v-2h3v-3h2v3h3v2h-3v3zM1703 424v-3h-3v-2h3v-3h2v3h3v2h-3v3zM1753 424v-3h-3v-2h3v-3h2v3h3v2h-3v3zM1803 424v-3h-3v-2h3v-3h2v3h3v2h-3v3zM1853 424v-3h-3v-2h3v-3h2v3h3v2h-3v3zM1903 424v-3h-3v-2h3v-3h2v3h3v2h-3v3zM1953 424v-3h-3v-2h3v-3h2v3h3v2h-3v3zM2003 424v-3h-3v-2h3v-3h2v3h3v2h-3v3zM2053 424v-3h-3v-2h3v-3h2v3h3v2h-3v3zM2103 424v-3h-3v-2h3v-3h2v3h3v2h-3v3zM2153 424v-3h-3v-2h3v-3h2v3h3v2h-3v3zM2203 424v-3h-3v-2h3v-3h2v3h3v2h-3v3zM2253 424v-3h-3v-2h3v-3h2v3h3v2h-3v3zM2303 424v-3h-3v-2h3v-3h2v3h3v2h-3v3zM2353 424v-3h-3v-2h3v-3h2v3h3v2h-3v3zM2403 424v-3h-3v-2h3v-3h2v3h3v2h-3v3zM3 476v-3H0v-2h3v-3h2v3h3v2H5v3zM53 476v-3h-3v-2h3v-3h2v3h3v2h-3v3zM103 476v-3h-3v-2h3v-3h2v3h3v2h-3v3zM153 476v-3h-3v-2h3v-3h2v3h3v2h-3v3zM203 476v-3h-3v-2h3v-3h2v3h3v2h-3v3zM253 476v-3h-3v-2h3v-3h2v3h3v2h-3v3zM303 476v-3h-3v-2h3v-3h2v3h3v2h-3v3zM353 476v-3h-3v-2h3v-3h2v3h3v2h-3v3zM403 476v-3h-3v-2h3v-3h2v3h3v2h-3v3zM453 476v-3h-3v-2h3v-3h2v3h3v2h-3v3zM503 476v-3h-3v-2h3v-3h2v3h3v2h-3v3zM553 476v-3h-3v-2h3v-3h2v3h3v2h-3v3zM603 476v-3h-3v-2h3v-3h2v3h3v2h-3v3zM653 476v-3h-3v-2h3v-3h2v3h3v2h-3v3zM703 476v-3h-3v-2h3v-3h2v3h3v2h-3v3zM753 476v-3h-3v-2h3v-3h2v3h3v2h-3v3zM803 476v-3h-3v-2h3v-3h2v3h3v2h-3v3zM853 476v-3h-3v-2h3v-3h2v3h3v2h-3v3zM903 476v-3h-3v-2h3v-3h2v3h3v2h-3v3zM953 476v-3h-3v-2h3v-3h2v3h3v2h-3v3zM1003 476v-3h-3v-2h3v-3h2v3h3v2h-3v3zM1053 476v-3h-3v-2h3v-3h2v3h3v2h-3v3zM1103 476v-3h-3v-2h3v-3h2v3h3v2h-3v3zM1153 476v-3h-3v-2h3v-3h2v3h3v2h-3v3zM1203 476v-3h-3v-2h3v-3h2v3h3v2h-3v3zM1253 476v-3h-3v-2h3v-3h2v3h3v2h-3v3zM1303 476v-3h-3v-2h3v-3h2v3h3v2h-3v3zM1353 476v-3h-3v-2h3v-3h2v3h3v2h-3v3zM1403 476v-3h-3v-2h3v-3h2v3h3v2h-3v3zM1453 476v-3h-3v-2h3v-3h2v3h3v2h-3v3zM1503 476v-3h-3v-2h3v-3h2v3h3v2h-3v3zM1553 476v-3h-3v-2h3v-3h2v3h3v2h-3v3zM1603 476v-3h-3v-2h3v-3h2v3h3v2h-3v3zM1653 476v-3h-3v-2h3v-3h2v3h3v2h-3v3zM1703 476v-3h-3v-2h3v-3h2v3h3v2h-3v3zM1753 476v-3h-3v-2h3v-3h2v3h3v2h-3v3zM1803 476v-3h-3v-2h3v-3h2v3h3v2h-3v3zM1853 476v-3h-3v-2h3v-3h2v3h3v2h-3v3zM1903 476v-3h-3v-2h3v-3h2v3h3v2h-3v3zM1953 476v-3h-3v-2h3v-3h2v3h3v2h-3v3zM2003 476v-3h-3v-2h3v-3h2v3h3v2h-3v3zM2053 476v-3h-3v-2h3v-3h2v3h3v2h-3v3zM2103 476v-3h-3v-2h3v-3h2v3h3v2h-3v3zM2153 476v-3h-3v-2h3v-3h2v3h3v2h-3v3zM2203 476v-3h-3v-2h3v-3h2v3h3v2h-3v3zM2253 476v-3h-3v-2h3v-3h2v3h3v2h-3v3zM2303 476v-3h-3v-2h3v-3h2v3h3v2h-3v3zM2353 476v-3h-3v-2h3v-3h2v3h3v2h-3v3zM2403 476v-3h-3v-2h3v-3h2v3h3v2h-3v3zM3 528v-3H0v-2h3v-3h2v3h3v2H5v3zM53 528v-3h-3v-2h3v-3h2v3h3v2h-3v3zM103 528v-3h-3v-2h3v-3h2v3h3v2h-3v3zM153 528v-3h-3v-2h3v-3h2v3h3v2h-3v3zM203 528v-3h-3v-2h3v-3h2v3h3v2h-3v3zM253 528v-3h-3v-2h3v-3h2v3h3v2h-3v3zM303 528v-3h-3v-2h3v-3h2v3h3v2h-3v3zM353 528v-3h-3v-2h3v-3h2v3h3v2h-3v3zM403 528v-3h-3v-2h3v-3h2v3h3v2h-3v3zM453 528v-3h-3v-2h3v-3h2v3h3v2h-3v3zM503 528v-3h-3v-2h3v-3h2v3h3v2h-3v3zM553 528v-3h-3v-2h3v-3h2v3h3v2h-3v3zM603 528v-3h-3v-2h3v-3h2v3h3v2h-3v3zM653 528v-3h-3v-2h3v-3h2v3h3v2h-3v3zM703 528v-3h-3v-2h3v-3h2v3h3v2h-3v3zM753 528v-3h-3v-2h3v-3h2v3h3v2h-3v3zM803 528v-3h-3v-2h3v-3h2v3h3v2h-3v3zM853 528v-3h-3v-2h3v-3h2v3h3v2h-3v3zM903 528v-3h-3v-2h3v-3h2v3h3v2h-3v3zM953 528v-3h-3v-2h3v-3h2v3h3v2h-3v3zM1003 528v-3h-3v-2h3v-3h2v3h3v2h-3v3zM1053 528v-3h-3v-2h3v-3h2v3h3v2h-3v3zM1103 528v-3h-3v-2h3v-3h2v3h3v2h-3v3zM1153 528v-3h-3v-2h3v-3h2v3h3v2h-3v3zM1203 528v-3h-3v-2h3v-3h2v3h3v2h-3v3zM1253 528v-3h-3v-2h3v-3h2v3h3v2h-3v3zM1303 528v-3h-3v-2h3v-3h2v3h3v2h-3v3zM1353 528v-3h-3v-2h3v-3h2v3h3v2h-3v3zM1403 528v-3h-3v-2h3v-3h2v3h3v2h-3v3zM1453 528v-3h-3v-2h3v-3h2v3h3v2h-3v3zM1503 528v-3h-3v-2h3v-3h2v3h3v2h-3v3zM1553 528v-3h-3v-2h3v-3h2v3h3v2h-3v3zM1603 528v-3h-3v-2h3v-3h2v3h3v2h-3v3zM1653 528v-3h-3v-2h3v-3h2v3h3v2h-3v3zM1703 528v-3h-3v-2h3v-3h2v3h3v2h-3v3zM1753 528v-3h-3v-2h3v-3h2v3h3v2h-3v3zM1803 528v-3h-3v-2h3v-3h2v3h3v2h-3v3zM1853 528v-3h-3v-2h3v-3h2v3h3v2h-3v3zM1903 528v-3h-3v-2h3v-3h2v3h3v2h-3v3zM1953 528v-3h-3v-2h3v-3h2v3h3v2h-3v3zM2003 528v-3h-3v-2h3v-3h2v3h3v2h-3v3zM2053 528v-3h-3v-2h3v-3h2v3h3v2h-3v3zM2103 528v-3h-3v-2h3v-3h2v3h3v2h-3v3zM2153 528v-3h-3v-2h3v-3h2v3h3v2h-3v3zM2203 528v-3h-3v-2h3v-3h2v3h3v2h-3v3zM2253 528v-3h-3v-2h3v-3h2v3h3v2h-3v3zM2303 528v-3h-3v-2h3v-3h2v3h3v2h-3v3zM2353 528v-3h-3v-2h3v-3h2v3h3v2h-3v3zM2403 528v-3h-3v-2h3v-3h2v3h3v2h-3v3zM3 580v-3H0v-2h3v-3h2v3h3v2H5v3zM53 580v-3h-3v-2h3v-3h2v3h3v2h-3v3zM103 580v-3h-3v-2h3v-3h2v3h3v2h-3v3zM153 580v-3h-3v-2h3v-3h2v3h3v2h-3v3zM203 580v-3h-3v-2h3v-3h2v3h3v2h-3v3zM253 580v-3h-3v-2h3v-3h2v3h3v2h-3v3zM303 580v-3h-3v-2h3v-3h2v3h3v2h-3v3zM353 580v-3h-3v-2h3v-3h2v3h3v2h-3v3zM403 580v-3h-3v-2h3v-3h2v3h3v2h-3v3zM453 580v-3h-3v-2h3v-3h2v3h3v2h-3v3zM503 580v-3h-3v-2h3v-3h2v3h3v2h-3v3zM553 580v-3h-3v-2h3v-3h2v3h3v2h-3v3zM603 580v-3h-3v-2h3v-3h2v3h3v2h-3v3zM653 580v-3h-3v-2h3v-3h2v3h3v2h-3v3zM703 580v-3h-3v-2h3v-3h2v3h3v2h-3v3zM753 580v-3h-3v-2h3v-3h2v3h3v2h-3v3zM803 580v-3h-3v-2h3v-3h2v3h3v2h-3v3zM853 580v-3h-3v-2h3v-3h2v3h3v2h-3v3zM903 580v-3h-3v-2h3v-3h2v3h3v2h-3v3zM953 580v-3h-3v-2h3v-3h2v3h3v2h-3v3zM1003 580v-3h-3v-2h3v-3h2v3h3v2h-3v3zM1053 580v-3h-3v-2h3v-3h2v3h3v2h-3v3zM1103 580v-3h-3v-2h3v-3h2v3h3v2h-3v3zM1153 580v-3h-3v-2h3v-3h2v3h3v2h-3v3zM1203 580v-3h-3v-2h3v-3h2v3h3v2h-3v3zM1253 580v-3h-3v-2h3v-3h2v3h3v2h-3v3zM1303 580v-3h-3v-2h3v-3h2v3h3v2h-3v3zM1353 580v-3h-3v-2h3v-3h2v3h3v2h-3v3zM1403 580v-3h-3v-2h3v-3h2v3h3v2h-3v3zM1453 580v-3h-3v-2h3v-3h2v3h3v2h-3v3zM1503 580v-3h-3v-2h3v-3h2v3h3v2h-3v3zM1553 580v-3h-3v-2h3v-3h2v3h3v2h-3v3zM1603 580v-3h-3v-2h3v-3h2v3h3v2h-3v3zM1653 580v-3h-3v-2h3v-3h2v3h3v2h-3v3zM1703 580v-3h-3v-2h3v-3h2v3h3v2h-3v3zM1753 580v-3h-3v-2h3v-3h2v3h3v2h-3v3zM1803 580v-3h-3v-2h3v-3h2v3h3v2h-3v3zM1853 580v-3h-3v-2h3v-3h2v3h3v2h-3v3zM1903 580v-3h-3v-2h3v-3h2v3h3v2h-3v3zM1953 580v-3h-3v-2h3v-3h2v3h3v2h-3v3zM2003 580v-3h-3v-2h3v-3h2v3h3v2h-3v3zM2053 580v-3h-3v-2h3v-3h2v3h3v2h-3v3zM2103 580v-3h-3v-2h3v-3h2v3h3v2h-3v3zM2153 580v-3h-3v-2h3v-3h2v3h3v2h-3v3zM2203 580v-3h-3v-2h3v-3h2v3h3v2h-3v3zM2253 580v-3h-3v-2h3v-3h2v3h3v2h-3v3zM2303 580v-3h-3v-2h3v-3h2v3h3v2h-3v3zM2353 580v-3h-3v-2h3v-3h2v3h3v2h-3v3zM2403 580v-3h-3v-2h3v-3h2v3h3v2h-3v3zM3 632v-3H0v-2h3v-3h2v3h3v2H5v3zM53 632v-3h-3v-2h3v-3h2v3h3v2h-3v3zM103 632v-3h-3v-2h3v-3h2v3h3v2h-3v3zM153 632v-3h-3v-2h3v-3h2v3h3v2h-3v3zM203 632v-3h-3v-2h3v-3h2v3h3v2h-3v3zM253 632v-3h-3v-2h3v-3h2v3h3v2h-3v3zM303 632v-3h-3v-2h3v-3h2v3h3v2h-3v3zM353 632v-3h-3v-2h3v-3h2v3h3v2h-3v3zM403 632v-3h-3v-2h3v-3h2v3h3v2h-3v3zM453 632v-3h-3v-2h3v-3h2v3h3v2h-3v3zM503 632v-3h-3v-2h3v-3h2v3h3v2h-3v3zM553 632v-3h-3v-2h3v-3h2v3h3v2h-3v3zM603 632v-3h-3v-2h3v-3h2v3h3v2h-3v3zM653 632v-3h-3v-2h3v-3h2v3h3v2h-3v3zM703 632v-3h-3v-2h3v-3h2v3h3v2h-3v3zM753 632v-3h-3v-2h3v-3h2v3h3v2h-3v3zM803 632v-3h-3v-2h3v-3h2v3h3v2h-3v3zM853 632v-3h-3v-2h3v-3h2v3h3v2h-3v3zM903 632v-3h-3v-2h3v-3h2v3h3v2h-3v3zM953 632v-3h-3v-2h3v-3h2v3h3v2h-3v3zM1003 632v-3h-3v-2h3v-3h2v3h3v2h-3v3zM1053 632v-3h-3v-2h3v-3h2v3h3v2h-3v3zM1103 632v-3h-3v-2h3v-3h2v3h3v2h-3v3zM1153 632v-3h-3v-2h3v-3h2v3h3v2h-3v3zM1203 632v-3h-3v-2h3v-3h2v3h3v2h-3v3zM1253 632v-3h-3v-2h3v-3h2v3h3v2h-3v3zM1303 632v-3h-3v-2h3v-3h2v3h3v2h-3v3zM1353 632v-3h-3v-2h3v-3h2v3h3v2h-3v3zM1403 632v-3h-3v-2h3v-3h2v3h3v2h-3v3zM1453 632v-3h-3v-2h3v-3h2v3h3v2h-3v3zM1503 632v-3h-3v-2h3v-3h2v3h3v2h-3v3zM1553 632v-3h-3v-2h3v-3h2v3h3v2h-3v3zM1603 632v-3h-3v-2h3v-3h2v3h3v2h-3v3zM1653 632v-3h-3v-2h3v-3h2v3h3v2h-3v3zM1703 632v-3h-3v-2h3v-3h2v3h3v2h-3v3zM1753 632v-3h-3v-2h3v-3h2v3h3v2h-3v3zM1803 632v-3h-3v-2h3v-3h2v3h3v2h-3v3zM1853 632v-3h-3v-2h3v-3h2v3h3v2h-3v3zM1903 632v-3h-3v-2h3v-3h2v3h3v2h-3v3zM1953 632v-3h-3v-2h3v-3h2v3h3v2h-3v3zM2003 632v-3h-3v-2h3v-3h2v3h3v2h-3v3zM2053 632v-3h-3v-2h3v-3h2v3h3v2h-3v3zM2103 632v-3h-3v-2h3v-3h2v3h3v2h-3v3zM2153 632v-3h-3v-2h3v-3h2v3h3v2h-3v3zM2203 632v-3h-3v-2h3v-3h2v3h3v2h-3v3zM2253 632v-3h-3v-2h3v-3h2v3h3v2h-3v3zM2303 632v-3h-3v-2h3v-3h2v3h3v2h-3v3zM2353 632v-3h-3v-2h3v-3h2v3h3v2h-3v3zM2403 632v-3h-3v-2h3v-3h2v3h3v2h-3v3zM3 684v-3H0v-2h3v-3h2v3h3v2H5v3zM53 684v-3h-3v-2h3v-3h2v3h3v2h-3v3zM103 684v-3h-3v-2h3v-3h2v3h3v2h-3v3zM153 684v-3h-3v-2h3v-3h2v3h3v2h-3v3zM203 684v-3h-3v-2h3v-3h2v3h3v2h-3v3zM253 684v-3h-3v-2h3v-3h2v3h3v2h-3v3zM303 684v-3h-3v-2h3v-3h2v3h3v2h-3v3zM353 684v-3h-3v-2h3v-3h2v3h3v2h-3v3zM403 684v-3h-3v-2h3v-3h2v3h3v2h-3v3zM453 684v-3h-3v-2h3v-3h2v3h3v2h-3v3zM503 684v-3h-3v-2h3v-3h2v3h3v2h-3v3zM553 684v-3h-3v-2h3v-3h2v3h3v2h-3v3zM603 684v-3h-3v-2h3v-3h2v3h3v2h-3v3zM653 684v-3h-3v-2h3v-3h2v3h3v2h-3v3zM703 684v-3h-3v-2h3v-3h2v3h3v2h-3v3zM753 684v-3h-3v-2h3v-3h2v3h3v2h-3v3zM803 684v-3h-3v-2h3v-3h2v3h3v2h-3v3zM853 684v-3h-3v-2h3v-3h2v3h3v2h-3v3zM903 684v-3h-3v-2h3v-3h2v3h3v2h-3v3zM953 684v-3h-3v-2h3v-3h2v3h3v2h-3v3zM1003 684v-3h-3v-2h3v-3h2v3h3v2h-3v3zM1053 684v-3h-3v-2h3v-3h2v3h3v2h-3v3zM1103 684v-3h-3v-2h3v-3h2v3h3v2h-3v3zM1153 684v-3h-3v-2h3v-3h2v3h3v2h-3v3zM1203 684v-3h-3v-2h3v-3h2v3h3v2h-3v3zM1253 684v-3h-3v-2h3v-3h2v3h3v2h-3v3zM1303 684v-3h-3v-2h3v-3h2v3h3v2h-3v3zM1353 684v-3h-3v-2h3v-3h2v3h3v2h-3v3zM1403 684v-3h-3v-2h3v-3h2v3h3v2h-3v3zM1453 684v-3h-3v-2h3v-3h2v3h3v2h-3v3zM1503 684v-3h-3v-2h3v-3h2v3h3v2h-3v3zM1553 684v-3h-3v-2h3v-3h2v3h3v2h-3v3zM1603 684v-3h-3v-2h3v-3h2v3h3v2h-3v3zM1653 684v-3h-3v-2h3v-3h2v3h3v2h-3v3zM1703 684v-3h-3v-2h3v-3h2v3h3v2h-3v3zM1753 684v-3h-3v-2h3v-3h2v3h3v2h-3v3zM1803 684v-3h-3v-2h3v-3h2v3h3v2h-3v3zM1853 684v-3h-3v-2h3v-3h2v3h3v2h-3v3zM1903 684v-3h-3v-2h3v-3h2v3h3v2h-3v3zM1953 684v-3h-3v-2h3v-3h2v3h3v2h-3v3zM2003 684v-3h-3v-2h3v-3h2v3h3v2h-3v3zM2053 684v-3h-3v-2h3v-3h2v3h3v2h-3v3zM2103 684v-3h-3v-2h3v-3h2v3h3v2h-3v3zM2153 684v-3h-3v-2h3v-3h2v3h3v2h-3v3zM2203 684v-3h-3v-2h3v-3h2v3h3v2h-3v3zM2253 684v-3h-3v-2h3v-3h2v3h3v2h-3v3zM2303 684v-3h-3v-2h3v-3h2v3h3v2h-3v3zM2353 684v-3h-3v-2h3v-3h2v3h3v2h-3v3zM2403 684v-3h-3v-2h3v-3h2v3h3v2h-3v3zM3 736v-3H0v-2h3v-3h2v3h3v2H5v3zM53 736v-3h-3v-2h3v-3h2v3h3v2h-3v3zM103 736v-3h-3v-2h3v-3h2v3h3v2h-3v3zM153 736v-3h-3v-2h3v-3h2v3h3v2h-3v3zM203 736v-3h-3v-2h3v-3h2v3h3v2h-3v3zM253 736v-3h-3v-2h3v-3h2v3h3v2h-3v3zM303 736v-3h-3v-2h3v-3h2v3h3v2h-3v3zM353 736v-3h-3v-2h3v-3h2v3h3v2h-3v3zM403 736v-3h-3v-2h3v-3h2v3h3v2h-3v3zM453 736v-3h-3v-2h3v-3h2v3h3v2h-3v3zM503 736v-3h-3v-2h3v-3h2v3h3v2h-3v3zM553 736v-3h-3v-2h3v-3h2v3h3v2h-3v3zM603 736v-3h-3v-2h3v-3h2v3h3v2h-3v3zM653 736v-3h-3v-2h3v-3h2v3h3v2h-3v3zM703 736v-3h-3v-2h3v-3h2v3h3v2h-3v3zM753 736v-3h-3v-2h3v-3h2v3h3v2h-3v3zM803 736v-3h-3v-2h3v-3h2v3h3v2h-3v3zM853 736v-3h-3v-2h3v-3h2v3h3v2h-3v3zM903 736v-3h-3v-2h3v-3h2v3h3v2h-3v3zM953 736v-3h-3v-2h3v-3h2v3h3v2h-3v3zM1003 736v-3h-3v-2h3v-3h2v3h3v2h-3v3zM1053 736v-3h-3v-2h3v-3h2v3h3v2h-3v3zM1103 736v-3h-3v-2h3v-3h2v3h3v2h-3v3zM1153 736v-3h-3v-2h3v-3h2v3h3v2h-3v3zM1203 736v-3h-3v-2h3v-3h2v3h3v2h-3v3zM1253 736v-3h-3v-2h3v-3h2v3h3v2h-3v3zM1303 736v-3h-3v-2h3v-3h2v3h3v2h-3v3zM1353 736v-3h-3v-2h3v-3h2v3h3v2h-3v3zM1403 736v-3h-3v-2h3v-3h2v3h3v2h-3v3zM1453 736v-3h-3v-2h3v-3h2v3h3v2h-3v3zM1503 736v-3h-3v-2h3v-3h2v3h3v2h-3v3zM1553 736v-3h-3v-2h3v-3h2v3h3v2h-3v3zM1603 736v-3h-3v-2h3v-3h2v3h3v2h-3v3zM1653 736v-3h-3v-2h3v-3h2v3h3v2h-3v3zM1703 736v-3h-3v-2h3v-3h2v3h3v2h-3v3zM1753 736v-3h-3v-2h3v-3h2v3h3v2h-3v3zM1803 736v-3h-3v-2h3v-3h2v3h3v2h-3v3zM1853 736v-3h-3v-2h3v-3h2v3h3v2h-3v3zM1903 736v-3h-3v-2h3v-3h2v3h3v2h-3v3zM1953 736v-3h-3v-2h3v-3h2v3h3v2h-3v3zM2003 736v-3h-3v-2h3v-3h2v3h3v2h-3v3zM2053 736v-3h-3v-2h3v-3h2v3h3v2h-3v3zM2103 736v-3h-3v-2h3v-3h2v3h3v2h-3v3zM2153 736v-3h-3v-2h3v-3h2v3h3v2h-3v3zM2203 736v-3h-3v-2h3v-3h2v3h3v2h-3v3zM2253 736v-3h-3v-2h3v-3h2v3h3v2h-3v3zM2303 736v-3h-3v-2h3v-3h2v3h3v2h-3v3zM2353 736v-3h-3v-2h3v-3h2v3h3v2h-3v3zM2403 736v-3h-3v-2h3v-3h2v3h3v2h-3v3z" fill="#3d57d8" />
      </g>
    </g>
  </g>
</svg>